<?xml version="1.0" encoding="utf-8"?>
<!-- Generator: Adobe Illustrator 23.1.0, SVG Export Plug-In . SVG Version: 6.00 Build 0)  -->
<svg version="1.1" id="Warstwa_1" xmlns="http://www.w3.org/2000/svg" xmlns:xlink="http://www.w3.org/1999/xlink" x="0px" y="0px"
	 viewBox="0 0 500 500" style="enable-background:new 0 0 500 500;" xml:space="preserve">
<style type="text/css">
	.st0{fill:#1D1D1B;}
	.st1{fill:#FFFFFF;}
</style>
<rect class="st0" width="500" height="500"/>
<g>
	<path class="st1" d="M159,281.2H90.6l-12,27.8c-2.9,6.9-4.3,12-4.3,15.4c0,1.4,0.2,2.7,0.7,3.9c0.5,1.2,1.4,2.2,2.9,3.2
		c1.5,1,3.6,1.8,6.2,2.5c2.7,0.7,6.2,1.2,10.6,1.5v4.9H39.1v-4.9c4.4-0.6,8-1.6,10.7-2.9c2.7-1.3,5.1-3.1,7-5.3
		c1.9-2.3,3.7-5.2,5.3-8.8c1.6-3.6,3.6-8.1,5.9-13.4l62.2-145.1h4.5l61.4,146.7c2.5,6.1,4.8,11,6.9,14.7c2.1,3.7,4.3,6.6,6.6,8.6
		c2.3,2.1,4.7,3.5,7.4,4.3c2.7,0.8,5.9,1.2,9.6,1.4v4.9h-69.8v-4.9c7-0.3,11.8-1.4,14.3-3.4c2.5-2,3.8-4.4,3.8-7.3
		c-0.1-3.8-1.9-9.8-5.2-18.3L159,281.2z M155.3,271.5l-29.9-71.3l-30.7,71.3H155.3z"/>
	<path class="st1" d="M338.5,340.3l-68.2-148.5v117.9c0,6.1,0.4,10.9,1.3,14.3c0.8,3.4,2.1,6,3.7,7.7c1.6,1.7,3.6,2.7,5.9,3.1
		c2.3,0.4,5,0.6,8,0.6h6.2v4.9H234v-4.9h6.2c3.1,0,5.8-0.2,8.2-0.7c2.3-0.5,4.3-1.6,5.8-3.3s2.7-4.3,3.5-7.8
		c0.8-3.4,1.2-8.1,1.2-13.9V194.3c0-4.1-0.2-7.8-0.6-11c-0.4-3.2-1.4-5.9-3-8.1c-1.6-2.2-4.1-3.9-7.4-5.1c-3.3-1.2-7.9-1.7-13.9-1.7
		v-4.9h49.9L348,301.8l63-138.2h49.9v4.9h-6c-3.2,0-6,0.3-8.4,0.8c-2.3,0.5-4.3,1.7-5.8,3.4c-1.6,1.7-2.7,4.3-3.5,7.8
		c-0.8,3.4-1.2,8.1-1.2,13.9v115.4c0,6.1,0.4,10.9,1.3,14.3c0.8,3.4,2.1,6,3.7,7.7c1.6,1.7,3.6,2.7,5.9,3.1s5,0.6,8,0.6h6v4.9h-75
		v-4.9h6.2c3.1,0,5.8-0.3,8.2-0.8c2.3-0.5,4.3-1.7,5.9-3.4c1.6-1.7,2.8-4.3,3.6-7.7c0.8-3.4,1.2-8,1.2-13.8V191.8l-68,148.5H338.5z"
		/>
</g>
</svg>
